<svg xmlns="http://www.w3.org/2000/svg" xmlns:xlink="http://www.w3.org/1999/xlink" id="Layer_1" x="0px" y="0px" viewBox="0 0 347 752" style="enable-background:new 0 0 347 752;" xml:space="preserve">
<style type="text/css">
	.st0{fill:url(#SVGID_1_);}
	.st1{fill:url(#SVGID_2_);}
</style>
<g>
	<linearGradient id="SVGID_1_" gradientUnits="userSpaceOnUse" x1="173.083" y1="751.5644" x2="173.083" y2="317.9236">
		<stop offset="8.000000e-02" style="stop-color:#1D1C22"></stop>
		<stop offset="1" style="stop-color:#292830"></stop>
	</linearGradient>
	<path class="st0" d="M338.8,426.3c-2-11.5-4.9-22.5-7.5-34.3c-2.4,0.6-3.9,0.8-5.7,0.8c-1.5-2.7-3.4-5.5-1.3-9.4   c0.7-1.9,0.8-4.4,0.5-6.3c-4.6-18.2-10.8-35.1-24.2-48.8c-7-7.5-16-11.5-26.5-10.2c-6.3,0.6-12.5,2.7-18.4,4.2   c-6.7-1.3-11.6,2.3-16.7,5.5c-3.1,1.7-5.6,3.7-8.8,5.5c-11.9,7.2-23.2,15.7-32.9,25.9c-12.1,12.9-24.6,25.6-35.9,39.2   c-8.9,10.8-16.5,23.1-24.9,34.5c-1.8,3-4.1,5.4-6.2,8.2c-1.2-1.5-2.1-2.2-2.5-3c-10.6,11.6-21.2,23.3-32.2,34.8   c-11.3,11.4-22.2,22.9-33.9,33.5c-14.8,13.4-30.5,26-48.8,34.2c-4.6,2.1-9.2,3.5-13.8,4.2v24.3c20.5-1,39.8-7.1,57.3-19.7   c9.7-6.9,20.7-12.7,27-23.3c15.6-10.6,26.7-25.6,40.8-37.8c2.5-2,4.8-4.4,6.7-6.6c21.6-24.2,42.8-48.5,64.1-72.9   c2.4-2.7,3.9-5.8,5.7-8c-1.2-0.8-2.1-1.1-3.1-1.5c16.6-21.3,61.8-53.3,77.6-55.5c11.3,7.6,16.1,20.1,23.4,32.8   c0.3-6.7-4.6-10.3-3.1-15.5c11.3,17.7,14.1,37.7,18.5,57.6c-1.5,0.2-2.7,0.5-3.3,0.2c2.1,18.3,4.4,36.8,5.5,54.7   c1.3,18.4,1.5,36.8,2.1,55.3c-0.1,5.3-1.1,11.1,0.8,15.7c2.1,5.1-2.8,9.8,1.4,14.1c-2.3,2.4,0.4,3,1.3,4.4c3.8,5.3,3.6,11,0.1,17.6   l-2.9-7.9c-0.7,4-1.5,6.3-2.1,8.9c-3.6,24.2-7,48.8-11.4,73.1c-4,21.2-10.3,41.9-21.1,61c-2.3,3.5-5,6.8-7.8,10.8   c-7.5-8.1-10.2-18.7-19.9-23.6c-1.3,1.7-1.7,2.6-2.3,3.5c-8.7-2.8-8.7-2.8-14.1,4.3c2.2,13,8.8,23.6,17.8,32.6   c6.1,6.1,13.4,9.8,22.5,7.3c1.6-0.5,3.1-0.7,4.7-0.1c7.4,2.3,13.4-1.3,17.1-6.8c5.5-7.4,11.1-15,13.9-23.7   c6-16.9,10.2-34.4,15.3-52.7c-4.7,3-3,10.4-10.3,8.9c1.1-6.1,1.1-13.2,4.3-18.2c6.6-10.5,5.7-23.1,8.3-34.3   c1.8-8,2.3-16.4,4.1-24.4c-2.1-3.3-1.5-5.9,1.1-8.2c-3-2.5-2-5.4-0.9-8.6c2.9,2.8,2.7,5.6,0.9,8.6c1.2-0.3,2.6-0.2,4.1-0.3   c0.6-2.7,1.4-4.9,1.5-7.3C348.4,530.9,347.8,478.4,338.8,426.3z M257.5,326.6c-1.8,0.1-3-0.7-5-1.1l3.2-2.8l6.4,2.3   C259.6,325.9,258.6,326.6,257.5,326.6z M298.6,729.2c6.2-15.4,11.6-28.5,16.8-42.1C311.7,701.6,308.9,715.6,298.6,729.2z    M335.3,573.6c-0.2,0.6-1.8,1.1-4,2.2l2.3-6.4c0.6,0.2,1.1,0,1.4,0.1C335.1,571,335.7,572.3,335.3,573.6z"></path>
	<linearGradient id="SVGID_2_" gradientUnits="userSpaceOnUse" x1="51.0386" y1="293.8843" x2="51.0386" y2="-1.2411">
		<stop offset="8.000000e-02" style="stop-color:#1D1C22"></stop>
		<stop offset="1" style="stop-color:#292830"></stop>
	</linearGradient>
	<path class="st1" d="M18,31.3c1.6,1.6,2.7,3.5,3.8,5.3c23.3,33.1,38.1,70,46.1,109.8c0.8,2.7,1.8,5.5,2.5,8.5   c0.1,0.1,0.2,0.2,0.1,0.4c3.1-12.5,1.4-25,0.9-37.7c0-1.1-0.3-2.3,0.5-3.4c8.3,23,14.3,46.4,16.3,70.8c0.6,7.4,0.4,14.9,0.9,23.6   c-3.2-2.2-4.8-3.5-6.6-4.5c-2.6-13.8-5.3-27.4-8.3-41c-0.5-2.7-2.1-5.1-3.7-7.8c0-0.1-0.1-0.2-0.1-0.4c-0.1,0-0.1-0.1-0.1-0.1   c0.2,2.6-0.1,5.3,0.6,7.4c4.4,11.6,3.8,23.6,3.2,35.2c-0.9,27.7-5.5,54.4-15.7,80.1c-1.8,4-1.1,7.1,2.7,9.6c4.8-0.4,9.8-0.4,15-0.7   c-1.1,3.2-2.1,5-3,7.5c3.8-0.5,6.3-0.6,6.3-4.6c0.1-1.4,0.4-3.1,1.1-3.2c5.4-3.1,5.2-8.5,6.5-13.1c3-10.4,5.3-20.7,7.7-30.6   c4.3-2,4.3-2,4.9-4.7c3-11.5,3.6-23.1,3.2-35.1c-0.8-26.8-6.1-53.1-12.5-79.5C82.9,94.4,71,67.5,57.4,41.4   c-6.6-12.8-14.5-24.6-23.7-34C23.3,5.2,13.2,7.4,6.3-1.2C4-0.5,1.6,0.2-0.7,0.9v26.6C6.3,22.6,11.6,23.9,18,31.3z M46.4,41.1   l-9.1-13.7C42.7,30.4,45.7,35.1,46.4,41.1z"></path>
</g>
<g>
</g>
<g>
</g>
<g>
</g>
<g>
</g>
<g>
</g>
<g>
</g>
<g>
</g>
<g>
</g>
<g>
</g>
<g>
</g>
<g>
</g>
<g>
</g>
<g>
</g>
<g>
</g>
<g>
</g>
</svg>