<svg xmlns="http://www.w3.org/2000/svg" xmlns:xlink="http://www.w3.org/1999/xlink" id="Layer_1" x="0px" y="0px" viewBox="0 0 1096 835" style="enable-background:new 0 0 1096 835;" xml:space="preserve">
<style type="text/css">
	.st0{fill:url(#SVGID_1_);}
</style>
<linearGradient id="SVGID_1_" gradientUnits="userSpaceOnUse" x1="548" y1="-0.4477" x2="548" y2="835.4478">
	<stop offset="0" style="stop-color:#1D1C22"></stop>
	<stop offset="0.76" style="stop-color:#232229"></stop>
</linearGradient>
<path class="st0" d="M-0.4,406.5c0-7,0-14,0-21c0.3-2,0.8-3.9,0.8-5.9c0.7-23.9,3.8-47.4,9.3-70.6c10.7-45,26.8-87.8,54.8-125.2  c31.5-42.3,68.2-79.6,110.1-111.7C210,44.8,248.1,22.3,290.8,8.3c11.9-3.9,24.5-5.9,36.7-8.7c4.3,0,8.7,0,13,0  c0.9,0.3,1.9,0.7,2.8,0.8c20.2,1.9,37.8,10.1,53.7,22.3c15.6,11.9,28.6,26.5,40.4,42c23.1,30.4,42,63.6,62,96.1  c18.1,29.4,37,58.1,58.9,84.9c22.3,27.4,49.6,45.3,84.9,50.7c26.7,4.1,53.5,4.2,80.3,1.7c45.3-4.2,90.4-9.6,135.7-13.9  c39.9-3.8,79.8-4.4,119.6,2.4c37,6.3,71.1,19.6,100.9,43c5.7,4.5,11.2,9.3,16.9,13.9c0,164,0,328,0,491.9c-298.3,0-596.6,0-894.9,0  c-1.6-2.1-3-4.3-4.7-6.2c-54.4-62.4-102.2-129.4-138.6-204c-30.5-62.5-51.6-127.6-57-197.4C0.7,420.7,0.1,413.6-0.4,406.5z"></path>
<g>
</g>
<g>
</g>
<g>
</g>
<g>
</g>
<g>
</g>
<g>
</g>
<g>
</g>
<g>
</g>
<g>
</g>
<g>
</g>
<g>
</g>
<g>
</g>
<g>
</g>
<g>
</g>
<g>
</g>
</svg>