<svg xmlns="http://www.w3.org/2000/svg" xmlns:xlink="http://www.w3.org/1999/xlink" id="Layer_1" x="0px" y="0px" viewBox="0 0 233 155" style="enable-background:new 0 0 233 155;" xml:space="preserve">
<style type="text/css">
	.st0{fill:url(#SVGID_1_);}
	.st1{fill:url(#SVGID_2_);}
	.st2{fill:url(#SVGID_3_);}
	.st3{fill:url(#SVGID_4_);}
	.st4{fill:url(#SVGID_5_);}
	.st5{fill:url(#SVGID_6_);}
	.st6{fill:url(#SVGID_7_);}
	.st7{fill:url(#SVGID_8_);}
	.st8{fill:url(#SVGID_9_);}
	.st9{fill:url(#SVGID_10_);}
	.st10{fill:url(#SVGID_11_);}
	.st11{fill:#F8565D;}
	.st12{fill:none;}
	.st13{fill:url(#SVGID_12_);}
	.st14{fill:url(#SVGID_13_);}
</style>
<g>
	<linearGradient id="SVGID_1_" gradientUnits="userSpaceOnUse" x1="-14.8209" y1="30.6244" x2="46.8664" y2="30.6244">
		<stop offset="0" style="stop-color:#000000"></stop>
		<stop offset="7.380247e-03" style="stop-color:#090909"></stop>
		<stop offset="4.767627e-02" style="stop-color:#373737"></stop>
		<stop offset="9.308982e-02" style="stop-color:#626262"></stop>
		<stop offset="0.1419" style="stop-color:#888888"></stop>
		<stop offset="0.195" style="stop-color:#A8A8A8"></stop>
		<stop offset="0.2537" style="stop-color:#C4C4C4"></stop>
		<stop offset="0.32" style="stop-color:#DADADA"></stop>
		<stop offset="0.3974" style="stop-color:#EBEBEB"></stop>
		<stop offset="0.4931" style="stop-color:#F6F6F6"></stop>
		<stop offset="0.6274" style="stop-color:#FDFDFD"></stop>
		<stop offset="1" style="stop-color:#FFFFFF"></stop>
	</linearGradient>
	<path class="st0" d="M53.4,42.7c0,9.4-7.9,14.9-22.8,14.9H0.3V3.7h28.8c14.9,0,21.8,5.9,21.8,14.1c0,5-2.5,9.2-7.5,11.6   C49.7,31.7,53.4,36.3,53.4,42.7z M18.2,16.4v8h8.5c4.1,0,5.9-1.4,5.9-4s-1.8-4-5.9-4H18.2z M35.1,40.6c0-2.8-2-4.2-6-4.2H18.2v8.5   h10.9C33.1,44.9,35.1,43.4,35.1,40.6z"></path>
	<linearGradient id="SVGID_2_" gradientUnits="userSpaceOnUse" x1="56.0991" y1="29.0075" x2="82.778" y2="29.0075">
		<stop offset="0" style="stop-color:#000000"></stop>
		<stop offset="7.380247e-03" style="stop-color:#090909"></stop>
		<stop offset="4.767627e-02" style="stop-color:#373737"></stop>
		<stop offset="9.308982e-02" style="stop-color:#626262"></stop>
		<stop offset="0.1419" style="stop-color:#888888"></stop>
		<stop offset="0.195" style="stop-color:#A8A8A8"></stop>
		<stop offset="0.2537" style="stop-color:#C4C4C4"></stop>
		<stop offset="0.32" style="stop-color:#DADADA"></stop>
		<stop offset="0.3974" style="stop-color:#EBEBEB"></stop>
		<stop offset="0.4931" style="stop-color:#F6F6F6"></stop>
		<stop offset="0.6274" style="stop-color:#FDFDFD"></stop>
		<stop offset="1" style="stop-color:#FFFFFF"></stop>
	</linearGradient>
	<path class="st1" d="M59.3,0.4h17.4v57.1H59.3V0.4z"></path>
	<linearGradient id="SVGID_3_" gradientUnits="userSpaceOnUse" x1="74.8679" y1="36.5146" x2="118.6013" y2="36.5146">
		<stop offset="0" style="stop-color:#000000"></stop>
		<stop offset="7.380247e-03" style="stop-color:#090909"></stop>
		<stop offset="4.767627e-02" style="stop-color:#373737"></stop>
		<stop offset="9.308982e-02" style="stop-color:#626262"></stop>
		<stop offset="0.1419" style="stop-color:#888888"></stop>
		<stop offset="0.195" style="stop-color:#A8A8A8"></stop>
		<stop offset="0.2537" style="stop-color:#C4C4C4"></stop>
		<stop offset="0.32" style="stop-color:#DADADA"></stop>
		<stop offset="0.3974" style="stop-color:#EBEBEB"></stop>
		<stop offset="0.4931" style="stop-color:#F6F6F6"></stop>
		<stop offset="0.6274" style="stop-color:#FDFDFD"></stop>
		<stop offset="1" style="stop-color:#FFFFFF"></stop>
	</linearGradient>
	<path class="st2" d="M126,34.9v22.6h-16.2V52c-2,4.2-6,6.3-11.9,6.3c-10.3,0-15.6-5.9-15.6-13.1c0-8.2,6.2-12.7,19.2-12.7h7   c-0.5-3.2-3-4.9-7.9-4.9c-3.8,0-8,1.2-10.8,3.3l-5.5-11.5c4.9-3.1,12.4-4.8,18.9-4.8C117.7,14.7,126,20.9,126,34.9z M108.6,43.9   v-2.9h-4.3c-3.7,0-5.3,1.2-5.3,3.5c0,1.9,1.5,3.4,4.2,3.4C105.6,47.9,107.7,46.6,108.6,43.9z"></path>
	<linearGradient id="SVGID_4_" gradientUnits="userSpaceOnUse" x1="124.4789" y1="36.0501" x2="174.8789" y2="36.7701">
		<stop offset="0" style="stop-color:#000000"></stop>
		<stop offset="7.380247e-03" style="stop-color:#090909"></stop>
		<stop offset="4.767627e-02" style="stop-color:#373737"></stop>
		<stop offset="9.308982e-02" style="stop-color:#626262"></stop>
		<stop offset="0.1419" style="stop-color:#888888"></stop>
		<stop offset="0.195" style="stop-color:#A8A8A8"></stop>
		<stop offset="0.2537" style="stop-color:#C4C4C4"></stop>
		<stop offset="0.32" style="stop-color:#DADADA"></stop>
		<stop offset="0.3974" style="stop-color:#EBEBEB"></stop>
		<stop offset="0.4931" style="stop-color:#F6F6F6"></stop>
		<stop offset="0.6274" style="stop-color:#FDFDFD"></stop>
		<stop offset="1" style="stop-color:#FFFFFF"></stop>
	</linearGradient>
	<path class="st3" d="M132.1,36.5c0-12.8,10.3-21.8,24.9-21.8c10.2,0,17.9,4.7,20.7,12.5l-13.5,6.6c-1.8-3.9-4.3-5.5-7.3-5.5   c-3.9,0-7.2,2.8-7.2,8.2c0,5.5,3.2,8.3,7.2,8.3c3,0,5.5-1.6,7.3-5.5l13.5,6.6c-2.8,7.8-10.5,12.5-20.7,12.5   C142.4,58.3,132.1,49.3,132.1,36.5z"></path>
	<linearGradient id="SVGID_5_" gradientUnits="userSpaceOnUse" x1="165.486" y1="30.129" x2="232.806" y2="28.329">
		<stop offset="0" style="stop-color:#000000"></stop>
		<stop offset="7.380247e-03" style="stop-color:#090909"></stop>
		<stop offset="4.767627e-02" style="stop-color:#373737"></stop>
		<stop offset="9.308982e-02" style="stop-color:#626262"></stop>
		<stop offset="0.1419" style="stop-color:#888888"></stop>
		<stop offset="0.195" style="stop-color:#A8A8A8"></stop>
		<stop offset="0.2537" style="stop-color:#C4C4C4"></stop>
		<stop offset="0.32" style="stop-color:#DADADA"></stop>
		<stop offset="0.3974" style="stop-color:#EBEBEB"></stop>
		<stop offset="0.4931" style="stop-color:#F6F6F6"></stop>
		<stop offset="0.6274" style="stop-color:#FDFDFD"></stop>
		<stop offset="1" style="stop-color:#FFFFFF"></stop>
	</linearGradient>
	<path class="st4" d="M201.9,44.6l-2.8,3v9.9h-17.4V0.4h17.4v27.3l12.1-12.2h20.6l-17.4,18.2l18.8,23.9h-21L201.9,44.6z"></path>
	<linearGradient id="SVGID_6_" gradientUnits="userSpaceOnUse" x1="-7.8609" y1="83.2734" x2="30.5661" y2="83.2734">
		<stop offset="0" style="stop-color:#000000"></stop>
		<stop offset="7.380247e-03" style="stop-color:#090909"></stop>
		<stop offset="4.767627e-02" style="stop-color:#373737"></stop>
		<stop offset="9.308982e-02" style="stop-color:#626262"></stop>
		<stop offset="0.1419" style="stop-color:#888888"></stop>
		<stop offset="0.195" style="stop-color:#A8A8A8"></stop>
		<stop offset="0.2537" style="stop-color:#C4C4C4"></stop>
		<stop offset="0.32" style="stop-color:#DADADA"></stop>
		<stop offset="0.3974" style="stop-color:#EBEBEB"></stop>
		<stop offset="0.4931" style="stop-color:#F6F6F6"></stop>
		<stop offset="0.6274" style="stop-color:#FDFDFD"></stop>
		<stop offset="1" style="stop-color:#FFFFFF"></stop>
	</linearGradient>
	<path class="st5" d="M14.6,73.3v7h16.9v10.3H14.6v13H0.9V63h33v10.3H14.6z"></path>
	<linearGradient id="SVGID_7_" gradientUnits="userSpaceOnUse" x1="29.0991" y1="83.2734" x2="62.4591" y2="83.2734">
		<stop offset="0" style="stop-color:#000000"></stop>
		<stop offset="7.380247e-03" style="stop-color:#090909"></stop>
		<stop offset="4.767627e-02" style="stop-color:#373737"></stop>
		<stop offset="9.308982e-02" style="stop-color:#626262"></stop>
		<stop offset="0.1419" style="stop-color:#888888"></stop>
		<stop offset="0.195" style="stop-color:#A8A8A8"></stop>
		<stop offset="0.2537" style="stop-color:#C4C4C4"></stop>
		<stop offset="0.32" style="stop-color:#DADADA"></stop>
		<stop offset="0.3974" style="stop-color:#EBEBEB"></stop>
		<stop offset="0.4931" style="stop-color:#F6F6F6"></stop>
		<stop offset="0.6274" style="stop-color:#FDFDFD"></stop>
		<stop offset="1" style="stop-color:#FFFFFF"></stop>
	</linearGradient>
	<path class="st6" d="M55.6,93.4h-3.7v10.2H38.2V63h19.5c11.3,0,18.5,5.9,18.5,15.3c0,5.9-2.8,10.3-7.7,12.8l8.5,12.5H62.5   L55.6,93.4z M56.9,73.5h-5V83h5c3.8,0,5.6-1.8,5.6-4.8C62.5,75.3,60.7,73.5,56.9,73.5z"></path>
	<linearGradient id="SVGID_8_" gradientUnits="userSpaceOnUse" x1="92.9391" y1="83.2734" x2="66.1505" y2="83.2734">
		<stop offset="0" style="stop-color:#FFFFFF"></stop>
		<stop offset="9.262893e-02" style="stop-color:#F9F9F9"></stop>
		<stop offset="0.2156" style="stop-color:#E8E8E8"></stop>
		<stop offset="0.3557" style="stop-color:#CDCDCD"></stop>
		<stop offset="0.5084" style="stop-color:#A6A6A6"></stop>
		<stop offset="0.6715" style="stop-color:#757575"></stop>
		<stop offset="0.8404" style="stop-color:#393939"></stop>
		<stop offset="0.9855" style="stop-color:#000000"></stop>
	</linearGradient>
	<path class="st7" d="M81.5,63h13.7v40.6H81.5V63z"></path>
	<linearGradient id="SVGID_9_" gradientUnits="userSpaceOnUse" x1="72.7791" y1="83.2734" x2="114.0598" y2="83.2734">
		<stop offset="1.450567e-02" style="stop-color:#000000"></stop>
		<stop offset="0.1596" style="stop-color:#393939"></stop>
		<stop offset="0.3285" style="stop-color:#757575"></stop>
		<stop offset="0.4916" style="stop-color:#A6A6A6"></stop>
		<stop offset="0.6443" style="stop-color:#CDCDCD"></stop>
		<stop offset="0.7844" style="stop-color:#E8E8E8"></stop>
		<stop offset="0.9074" style="stop-color:#F9F9F9"></stop>
		<stop offset="1" style="stop-color:#FFFFFF"></stop>
	</linearGradient>
	<path class="st8" d="M101.8,63h20c13.6,0,22.9,7.7,22.9,20.3c0,12.6-9.3,20.3-22.9,20.3h-20V63z M121.2,92.9c5.7,0,9.7-3.4,9.7-9.6   c0-6.2-3.9-9.6-9.7-9.6h-5.7v19.3H121.2z"></path>
	<linearGradient id="SVGID_10_" gradientUnits="userSpaceOnUse" x1="138.508" y1="83.0418" x2="161.068" y2="83.2818">
		<stop offset="1.450567e-02" style="stop-color:#000000"></stop>
		<stop offset="0.1596" style="stop-color:#393939"></stop>
		<stop offset="0.3285" style="stop-color:#757575"></stop>
		<stop offset="0.4916" style="stop-color:#A6A6A6"></stop>
		<stop offset="0.6443" style="stop-color:#CDCDCD"></stop>
		<stop offset="0.7844" style="stop-color:#E8E8E8"></stop>
		<stop offset="0.9074" style="stop-color:#F9F9F9"></stop>
		<stop offset="1" style="stop-color:#FFFFFF"></stop>
	</linearGradient>
	<path class="st9" d="M176.7,96.5h-15.4l-2.7,7.1h-13.9L162.4,63h13.5l17.7,40.6h-14.2L176.7,96.5z M173,86.6L169,76.4l-3.9,10.2   H173z"></path>
	<linearGradient id="SVGID_11_" gradientUnits="userSpaceOnUse" x1="178.2857" y1="90.5035" x2="233.7257" y2="74.1835">
		<stop offset="0" style="stop-color:#000000"></stop>
		<stop offset="7.380247e-03" style="stop-color:#090909"></stop>
		<stop offset="4.767627e-02" style="stop-color:#373737"></stop>
		<stop offset="9.308982e-02" style="stop-color:#626262"></stop>
		<stop offset="0.1419" style="stop-color:#888888"></stop>
		<stop offset="0.195" style="stop-color:#A8A8A8"></stop>
		<stop offset="0.2537" style="stop-color:#C4C4C4"></stop>
		<stop offset="0.32" style="stop-color:#DADADA"></stop>
		<stop offset="0.3974" style="stop-color:#EBEBEB"></stop>
		<stop offset="0.4931" style="stop-color:#F6F6F6"></stop>
		<stop offset="0.6274" style="stop-color:#FDFDFD"></stop>
		<stop offset="1" style="stop-color:#FFFFFF"></stop>
	</linearGradient>
	<path class="st10" d="M217.3,88.8v14.7h-13.7V88.7L188.3,63h14.4l8.3,14l8.4-14h13.2L217.3,88.8z"></path>
</g>
<path class="st11" d="M130.7,101.3c-0.5,0.7-0.9,1.6-1.6,2.7c1.6-0.9,2.9-1.6,4.2-2.6c4.5-3.4,8.9-6.7,13.4-10.1l3.4-2.7  c0.4-0.3,0.9-0.4,1.4-0.7l1,2.3c0.9-0.2,1.6-1.2,2.6-0.5c1.2,1.7,0.6,3.4,0,5.1c-0.4,1.1-1,2.1-1.5,3.2l-5.8,11.6  c-0.2,0.4-0.5,0.8-0.8,1.3c-0.6-0.8-0.1-1.4,0.1-2.1c0.3-0.8,0.7-1.6,1.1-2.5c0.9-1.2,1.6-2.5,2.1-4c-1,1.2-2.2,2.3-2.1,4  c-0.9,0.4-1.2,1.3-1.6,2.1c-0.5,1-1,2.1-1.6,3.3l-1.1-1.2c-0.2,0.1-0.5,0.3-0.9,0.5c-0.3-0.3-0.5-0.5-0.9-0.8  c0.3-1.2,1.1-2.3,0.8-3.6c-0.1-0.3,0.3-0.8,0.5-1.2l3.2-6.3c0.1-0.3,0.3-0.8,0.6-1.5l-5.9,4.2c-0.2,0-0.4,0-0.6,0.1  c-0.7-0.2-0.8-0.1-1.4,0.8c0.3-0.1,0.7-0.1,1-0.1c0.5,0.2,0.9-0.1,1.2-0.5c0.6-0.3,1.2-0.5,2.2-0.8c-3,2.7-6.1,4.7-9.2,6.6  c-1.6,1-3.4,1.9-5.1,2.7c-2.1,1.1-4.3,0.8-6.3-0.1c-1-0.4-1.4-1.2-1.4-2.4c0.1-2.4,0.8-4.6,2.1-6.5c1.5-2.2,3-4.3,4.7-6.3  c3.6-4.2,7.7-8,12.3-11.1c1.6-1.1,3.5-1.9,5.4-2.3c0.8-0.2,1.5-0.8,2.3-1.2c0.8-0.4,1.6-0.9,2.5-1.1c1.4-0.4,2.4,0.5,3.3,1.6  c-0.3-0.1-0.5-0.2-1-0.3c-0.1,0.3-0.2,0.7-0.3,1.2c0.6,0.1,1.2,0.2,1.8,0.3c1.4,1.4,1.8,2.9,1,4.7c-1.5,0.7-1.6,0.6-2.5-0.7  c-0.3,0.1-0.6,0.3-1,0.5c-0.2-0.2-0.5-0.3-0.7-0.5c-0.1-0.2-0.2-0.4-0.4-0.8c-0.9,0.4-1.8,0.7-2.5,1.2c-2.6,1.6-5.3,3.4-7.8,5.1  c-1.4,0.9-2.7,2-4.1,2.9C134.4,96.4,132.6,99,130.7,101.3z M128.1,107.5c-0.4,0.1-0.8,0.2-1.2,0.3C128,108.2,128.3,108,128.1,107.5z   M129.4,106.4c0.4,0.1,0.7,0.3,1,0.3c0.1-0.3,0.3-0.5,0.6-1.1L129.4,106.4z M138.6,103.1c0.1,0.1,0.1,0.1,0.1,0.3l0.4-0.5  L138.6,103.1z"></path>
<path class="st11" d="M153.4,112.8c-0.3,0.3-0.5,0.6-0.8,1.2c-0.2-0.5-0.5-0.9-0.4-1.2c0.3-0.7,0.6-1.3,1-2c-0.3-0.2-0.6-0.3-1-0.5  c0.7-0.9,1.3-1.7,1.9-2.6c1.7-2.8,3.3-5.7,5-8.6c1.2-1.9,2.5-3.8,3.7-5.8c0.1-0.2,0.3-0.4,0.3-0.7c0.7-1.6,1.3-3.4,2.1-5  c2.3-5.4,4.6-10.9,6.9-16.3c1-2.5,2.1-5,3.2-7.5c0.8-1.9,1.4-3.7,1.9-5.6c1.4-4.8,3.4-9.4,4.4-14.3c0.2-0.8,0.3-1.7,0.5-2.5  c0.1-0.3,0.1-0.7,0-0.9c-1.3-2.2,0-3.8,1-5.7c0.7,0.5,1.2,0.8,1.7,1.1c1.4,0.9,2.2,2.2,2.3,3.9c0.1,2.7-0.4,5.5-1.3,8  c-2.7,7.7-5.4,15.4-8.2,23.1c-1.9,5.1-4,10.2-6.1,15.2c-2.2,5.1-4.7,9.9-7.5,14.7c-2.1,3.6-4.1,7.2-6.2,10.8  c-0.3,0.5-0.6,0.9-1.1,1.3c0.3-1.4,1.4-2.4,2.1-3.6c0.6-1.3,1.5-2.5,2.2-3.8c0.7-1.2,1.2-2.5,2.1-4c-0.5,0.3-0.8,0.5-1.3,0.8  c0.3-1,0.5-1.6,0.9-2.3l5.6-11c0.3-0.4,0.4-0.8,0.7-1.3c-0.9,0-1,0.8-1.2,1.2c-1.9,3.6-3.6,7.3-5.6,10.9c-2.5,4.7-5.1,9.4-7.9,14.3  C153.7,113.5,153.6,113.2,153.4,112.8z M177.5,69.4l-0.3-0.1c-0.1,0.1-0.1,0.2-0.1,0.3c0.1,0.1,0.2,0.1,0.3,0.1  C177.4,69.6,177.4,69.4,177.5,69.4z"></path>
<path class="st11" d="M183.3,106.9c0.1-0.2,0.3-0.3,0.4-0.6c-1.4-1-2.1-2.5-3.8-3.1c-0.4-0.1-0.7-0.7-1-1c-0.5-0.5-1-1.2-1.4-1.7  c-0.2-0.3-0.3-0.6-0.3-0.9c-0.1-0.6-0.1-1.2-0.1-1.8c-1.3-0.1-2.8,1-4-0.6c0.1-0.5,0.1-1.1,0.1-1.8c0.5-0.3,1-0.7,1.4-1.1l-0.1,0.1  c1.4,0.1,2.9,0.1,4.3-0.7c0.4-0.2,0.9-0.4,1.2-0.8c1.3-1.4,2.8-2.7,4.5-3.7c1.4-1,2.8-2.1,3.8-3.6c0.4-0.6,0.9-1.1,1.4-1.5  c1.2-0.9,2.3-1.7,3.5-2.5c1.4-1,2.9-1.8,4.5-2.6c1-0.5,1.9-0.5,2.9,0c0.6,0.3,1.2,0.6,1.8,0.9c-0.3,0.2-1-0.4-0.9,0.8l0.9-0.8  c2,1,2.4,2.3,1.5,4.3c-0.5,1.2-1.4,2.2-2.3,3.1c-2.7,2.5-5.8,4.4-8.9,6.2c-3.1,1.8-6.4,2.9-9.6,4.3c-0.3,0.1-0.8,0.3-1,0.4  c0.1,3.6,2.1,5.3,7.3,5.7c-0.2-0.2-0.3-0.4-0.5-0.6c1.4-0.3,2.8-0.4,4.1-0.8c1.3-0.3,2.6-1,4-1.4c0.5,0.3,1.2,0.8,1.9,1.4  c1.3,1,1.3,2.7-0.1,3.5c-2.5,1.5-5.3,2.3-8.2,2.3h-2.5C186.4,108.2,184.9,107.4,183.3,106.9z M180.6,98.6c-0.6,0.3-0.4,0.7-0.2,1.2  C180.4,99.3,180.5,98.9,180.6,98.6z M193.3,87.6l-0.2-0.8c-2.5,1.4-4.7,3.1-6.6,5C189.1,90.8,192.1,88.9,193.3,87.6z"></path>
<g>
	<path class="st12" d="M92.3,43.7c-0.3-0.3-0.5-0.6-0.7-0.6c-0.3,0-0.5,0.2-0.8,0.3c0,0.1,0.1,0.1,0.1,0.3H92.3z"></path>
	<path class="st12" d="M114.7,39.1c2.9,0.1,5.8,0.2,9.2,0.3C120.6,38.5,117.7,38.9,114.7,39.1z"></path>
	<path class="st12" d="M52,70.5v-0.8c-0.1,0.2-0.1,0.3-0.2,0.5C51.9,70.3,51.9,70.4,52,70.5z"></path>
	<path class="st12" d="M93.1,41.9c0.7,0,1.3,0,1.6-0.8C94,41,93.5,41.1,93.1,41.9z"></path>
	<path class="st12" d="M49.1,74.1v1.4l0.8,0.4c-0.1-0.4,0-0.7-0.1-1C49.7,74.6,49.5,74.5,49.1,74.1z"></path>
	<linearGradient id="SVGID_12_" gradientUnits="userSpaceOnUse" x1="90.0683" y1="77.628" x2="88.6283" y2="61.788">
		<stop offset="0" style="stop-color:#8F2634"></stop>
		<stop offset="1" style="stop-color:#F8565D"></stop>
	</linearGradient>
	<path class="st13" d="M129.2,41.4c-0.2-0.3-0.3-0.5-0.3-0.9c-0.1-1.6-1.2-2.5-2.5-2.8c-1.8-0.5-3.6-1.1-5.5-1   c-3.6,0-7.3,0.4-11.1,0.7c0.9,0.7,2.2-0.1,2.4,1.4c-1.2,0.2-2.6,0.7-3.8,0.4c-2.5-0.5-4.8,0.5-7.1,0.8c-1.6,0.2-3.3,0.7-4.9,0.9   c-0.5,0.6-1,0.7-1.6,0.3c-0.3,0.8-0.9,0.8-1.6,0.8c0.3-0.8,0.9-0.9,1.6-0.8c-0.1-0.2-0.2-0.5-0.3-0.8c-0.5,0.1-1,0.1-1.5,0.2   c-10.3,2.9-20.3,6.6-29.6,11.9c-2.1,1.2-4,2.5-6,3.8c0.3,0.4,0.4,0.7,0.5,1c-0.4,0.5-0.8,1-1.7,0.9c-0.4,0-0.9,0.1-1.2,0.3   c-1,0.7-1.9,1.4-2.8,2.1c-2,1.6-3.7,3.5-4.8,5.8c-1,1.9-1.1,3.8-0.1,5.8c0.2,0.5,0.5,0.9,0.8,1.3c0.4,0.7,0.9,1.3,1.3,1.9   c0.2,1.4,1.2,2.1,2.2,2.8c0.2,0.2,0.5,0.4,0.7,0.6v-5.3h2.9c-1.3-1.1-2.4-2.2-2.9-3c-0.1-0.1-0.1-0.2-0.2-0.3   c0-0.2,0.1-0.3,0.2-0.5c0.8-2.4,2.7-4.1,4.5-6.2c-1.3,0.4-1.6,1.6-2.7,1.6c2.6-3.4,6.2-5.3,9.7-7.5c0.1,0.3,0.3,0.5,0.3,0.6   c3.4-1.6,6.7-3.4,10.1-4.8c3.4-1.5,6.9-2.8,10.4-4.2c1-0.3,2.2-0.5,2.9-1.2c0.8-0.8,2.1-0.1,2.6-1.2c0.6,0.3,0.5-0.3,0.8-0.5   c0.8-1.1,1.9-1.4,3.4-1.2l-1.3,1.1c0.8-0.1,1.3-0.1,1.9-0.2c4.9-1,9.8-2,14.7-2.8c4.3-0.7,8.7-0.9,13.1-0.1   c0.8,0.2,1.6,0.5,2.6,0.8c-1,2-2.9,3.2-3.2,5.4c0.4,0.1,0.6,0.1,0.8,0.2c0.1,1.9,0.1,1.9,1.8,2.4c2.3-1.3,3.9-3.3,5-5.6   C130.1,44.6,130.3,43,129.2,41.4z M49.1,75.5v-1.4c0.3,0.4,0.5,0.5,0.6,0.8c0.1,0.3,0.1,0.6,0.1,1L49.1,75.5z M91,43.7   c0-0.1-0.1-0.2-0.1-0.3c0.3-0.1,0.5-0.3,0.8-0.3c0.1,0,0.3,0.3,0.7,0.6H91z M114.7,39.1c3-0.3,5.9-0.7,9.2,0.3   C120.5,39.3,117.6,39.2,114.7,39.1z"></path>
</g>
<path class="st12" d="M22.5,124.7c2.4-1,4.7-2.1,7.3-2.4c0.4-0.5,0.8-1,1.2-1.2c2.4-1.5,4.8-2.9,7.3-4.4c0.1-0.4,0.2-0.8,0.4-1.6  c-1.6,0.7-3.1,1.2-4.5,1.8c-4.5,2.1-8.6,4.8-12.4,8C22.1,124.9,22.3,124.8,22.5,124.7z"></path>
<path class="st12" d="M7.7,137.4l2-2.7C8.6,135.2,7.9,136.1,7.7,137.4z"></path>
<path class="st12" d="M114.4,113.4v-2.5C113.9,112.8,113.9,112.8,114.4,113.4z"></path>
<linearGradient id="SVGID_13_" gradientUnits="userSpaceOnUse" x1="85.5728" y1="92.0289" x2="71.6528" y2="85.5489">
	<stop offset="0" style="stop-color:#F8565D"></stop>
	<stop offset="1" style="stop-color:#8F2634"></stop>
</linearGradient>
<path class="st14" d="M106,98c-2-1.4-3.8-3.1-6.3-3.6c-3.1-2.3-6.7-3.4-10-5.2c-0.5-0.3-1.2-0.6-1.7-0.8c-4.4-1.8-8.1-3.3-12.5-5  c-0.5,2.1-2,3.8-3.6,5.4c2.3,0.7,4.2,1.1,6.5,1.8c0.7,0.1,1.3,0.4,2,0.6c-0.2,0.3-0.3,0.5-0.4,0.7c2.9,1.2,5.9,2.5,8.8,3.8  c2.9,1.4,5.9,2.7,8.7,4.2c3.6,1.9,7.1,4,9.9,7h6.1C111.8,103.4,109.4,100.4,106,98z"></path>
<path class="st11" d="M113.4,106.9h-6.1c2.3,2.3,3.2,5.1,2.6,8.3c-0.5,2.8-1.8,5.2-3.6,7.3c-3.2,3.7-7.1,6.6-11.2,9  c-10.3,6.1-21.4,10.1-32.9,12.9c-4.5,1.1-9,1.9-13.6,2.7c-3,0.5-6.1,0.8-9.5,1.2c0.7,0.3,1.1,0.5,1.6,0.8c-1,0.5-1.9,0.8-2.7,1.2  c0,0.3,0,0.6-0.1,0.8c-2.4,0.5-4.9-0.2-6.9,1.6c-0.6,0.5-4.7,0.1-6-0.3l6.2-1l-2.1-0.3c2.6-0.4,4.9-0.8,7.1-1c0-0.1-0.1-0.2-0.1-0.3  l-0.9-0.2c0.8-0.3,1.4-0.4,2.1-0.6c-1.7-0.3-3.3,0-4.9,0c-4.7,0.1-9.5-0.3-14.1-1.2c-2.7-0.5-5.3-1.4-7.7-2.8  c-1.9-1.1-2.2-2.3-1.1-4.2c0.2-0.4,0.5-0.8,0.8-1.1c4.7-6.7,10.8-12.1,17.8-16.3c0.5-0.3,0.9-0.7,1.4-1.1c0,0,0,0,0,0  c0.5-0.2,1-0.3,1.4-0.6c1.9-1.6,4.2-2.3,6.5-3c5.3-1.7,10.8-2.7,16.4-2.5c0.9,0.1,1.4-0.3,1.6-1.2c-0.4-0.9-0.8-1.9-1.2-2.8  c0.7,0,1.1,0.1,1.6,0.1c-0.3-0.7-0.5-1.2-1.3-0.9c-0.3,0.1-0.6,0.1-0.7,0c-1-0.8-2-0.4-2.9-0.3c-2.2,0.1-4.3,0.4-6.4,0.6  c-0.7-0.7-0.7-0.7-1.2-0.6c-2.4,0.2-4.7,0.9-6.9,1.8c-5.1,2-9.7,4.8-14.3,7.8c-5,3.4-9.3,7.5-13.4,11.9c-2,2.1-3.7,4.5-4.9,6.9  c0.3,2.1,1.4,3.9,0.2,5.8c0.7,0.9,1.3,1.9,2.1,2.6c1.3,1.2,2.6,2.5,4.1,3.4c1.2,0.8,2.5,1.2,3.9,1.6c6.9,1.9,13.9,2.5,21,1.8  c0.7-0.1,1.4,0,2.1-0.1c2.2-0.2,4.4-0.3,6.5-0.6c2.3-0.3,4.6-1.2,7.1-1c0.3,0.1,0.8,0,1.1-0.1c3.6-0.8,7.2-1.4,10.8-2.3  c11-2.8,21.6-6.7,31.5-12.4c5.1-2.9,9.8-6.1,14-10.1c3.6-3.4,6.4-7.3,6.7-12.4c0.1-1.4,0.1-3-0.2-4.4  C114.5,109.7,114,108.3,113.4,106.9z M34.3,116.9c1.4-0.6,2.8-1.1,4.5-1.8c-0.2,0.8-0.3,1.2-0.4,1.6c-2.5,1.4-4.9,2.9-7.3,4.4  c-0.5,0.3-0.8,0.8-1.2,1.2c-2.6,0.3-4.9,1.4-7.3,2.4c-0.2,0.1-0.4,0.2-0.7,0.1C25.7,121.7,29.7,118.9,34.3,116.9z M9.7,134.7l-2,2.7  C7.9,136.1,8.6,135.2,9.7,134.7z M114.4,113.4c-0.5-0.6-0.5-0.6,0-2.5V113.4z"></path>
<g>
</g>
<g>
</g>
<g>
</g>
<g>
</g>
<g>
</g>
<g>
</g>
<g>
</g>
<g>
</g>
<g>
</g>
<g>
</g>
<g>
</g>
<g>
</g>
<g>
</g>
<g>
</g>
<g>
</g>
</svg>